<svg xmlns="http://www.w3.org/2000/svg" version="1.1" xmlns:xlink="http://www.w3.org/1999/xlink" viewBox="0 0 200 200"><rect width="200" height="200" fill="url('#gradient')"></rect><defs><linearGradient id="gradient" gradientTransform="rotate(50 0.5 0.5)"><stop offset="0%" stop-color="#e80c0c"></stop><stop offset="100%" stop-color="#ff9e9e"></stop></linearGradient></defs><g><g fill="#000000" transform="matrix(2.215868852459016,0,0,2.215868852459016,33.223073537685835,112.50811031916884)" stroke="#000000" stroke-width="0.7"><path d="M12.24-14.22L12.24-11.57L7.97-11.57L7.97 0L4.54 0L4.54-11.57L0.35-11.57L0.35-14.22L12.24-14.22ZM17.00-10.57L17.00 0L13.70 0L13.70-10.57L17.00-10.57ZM13.51-13.29L13.51-13.29Q13.51-13.99 14.01-14.44Q14.52-14.89 15.33-14.89Q16.14-14.89 16.65-14.44Q17.16-13.99 17.16-13.29Q17.16-12.59 16.65-12.14Q16.14-11.69 15.33-11.69Q14.52-11.69 14.01-12.14Q13.51-12.59 13.51-13.29ZM19.28-5.34L19.28-5.78Q19.28-8.16 19.91-10.21Q20.55-12.27 21.67-13.69Q22.78-15.12 24.15-15.68L24.15-15.68L24.78-14.06Q23.41-13.06 22.66-10.92Q21.91-8.79 21.90-5.92L21.90-5.92L21.90-5.49Q21.90-2.55 22.65-0.39Q23.40 1.77 24.78 2.77L24.78 2.77L24.15 4.39Q22.80 3.85 21.67 2.40Q20.53 0.95 19.91-1.06Q19.30-3.08 19.28-5.34L19.28-5.34ZM26.11-10.57L29.20-10.57L29.31-9.33Q30.43-10.76 32.32-10.76L32.32-10.76Q34.33-10.76 35.03-9.17L35.03-9.17Q36.10-10.76 38.13-10.76L38.13-10.76Q41.35-10.76 41.44-6.88L41.44-6.88L41.44 0L38.13 0L38.13-6.67Q38.13-7.48 37.86-7.85Q37.59-8.22 36.87-8.22L36.87-8.22Q35.89-8.22 35.41-7.35L35.41-7.35L35.42-7.22L35.42 0L32.12 0L32.12-6.65Q32.12-7.48 31.86-7.85Q31.59-8.22 30.85-8.22L30.85-8.22Q29.90-8.22 29.40-7.35L29.40-7.35L29.40 0L26.11 0L26.11-10.57ZM48.51-5.94L48.51-5.51Q48.51-3.21 47.83-1.15Q47.16 0.91 45.97 2.39Q44.79 3.87 43.41 4.39L43.41 4.39L42.78 2.77Q44.14 1.76 44.88-0.35Q45.63-2.46 45.65-5.21L45.65-5.21L45.65-5.80Q45.65-8.74 44.91-10.90Q44.16-13.06 42.78-14.06L42.78-14.06L43.41-15.68Q44.78-15.15 45.95-13.70Q47.13-12.25 47.81-10.21Q48.49-8.17 48.51-5.94L48.51-5.94ZM55.47 0.20L55.47 0.20Q53.04 0.20 51.53-1.25Q50.03-2.71 50.03-5.03L50.03-5.03L50.03-5.30Q50.03-6.92 50.63-8.16Q51.23-9.40 52.38-10.08Q53.54-10.76 55.12-10.76L55.12-10.76Q57.34-10.76 58.63-9.38Q59.92-8.00 59.92-5.53L59.92-5.53L59.92-4.25L53.38-4.25Q53.55-3.36 54.15-2.85Q54.75-2.34 55.69-2.34L55.69-2.34Q57.26-2.34 58.13-3.44L58.13-3.44L59.64-1.66Q59.02-0.81 57.90-0.31Q56.77 0.20 55.47 0.20ZM55.10-8.22L55.10-8.22Q53.65-8.22 53.38-6.31L53.38-6.31L56.70-6.31L56.70-6.56Q56.72-7.35 56.30-7.79Q55.88-8.22 55.10-8.22Z"></path></g></g></svg>